<svg version="1.1" id="Layer_1" xmlns="http://www.w3.org/2000/svg" xmlns:xlink="http://www.w3.org/1999/xlink" x="0px" y="0px"
	 width="100%" viewBox="0 0 2098 2423" enable-background="new 0 0 2098 2423" xml:space="preserve">
<path fill="#FE6467" opacity="1.000000" stroke="none" 
	d="
M1.999981,1820.000000 
	C2.000000,1416.623779 2.000000,1013.247620 2.716871,608.905884 
	C17.066170,600.330383 30.794104,592.885559 44.308422,585.071228 
	C64.122856,573.614014 83.702278,561.750061 103.528755,550.314148 
	C141.124496,528.628845 178.873032,507.208435 216.467957,485.521729 
	C256.125732,462.644958 295.672089,439.575012 335.278900,416.609863 
	C364.558319,399.632812 393.824249,382.632202 423.155914,365.745880 
	C450.432556,350.042725 477.809174,334.513306 505.102264,318.838562 
	C526.026855,306.821350 546.915527,294.740997 567.774292,282.609772 
	C596.645203,265.818756 625.406738,248.838715 654.337280,232.151611 
	C684.812439,214.573593 715.480835,197.330582 745.972961,179.781677 
	C772.377197,164.585464 798.613342,149.097549 824.994812,133.861633 
	C861.789246,112.612076 898.644897,91.468498 935.483765,70.295982 
	C961.087708,55.580559 986.729736,40.931332 1012.310059,26.174917 
	C1023.524170,19.705872 1034.649658,13.081724 1045.752197,6.422438 
	C1047.231201,5.535308 1050.449097,5.074051 1048.000000,2.000000 
	C1050.777832,2.000000 1053.555542,2.000000 1056.309814,2.294255 
	C1059.217285,5.067377 1061.886597,7.977556 1065.128052,9.944689 
	C1075.060303,15.972231 1085.220703,21.623213 1095.277222,27.446966 
	C1126.049805,45.267513 1156.783081,63.156029 1187.591675,80.914055 
	C1224.118286,101.967987 1260.732422,122.870361 1297.262207,143.918671 
	C1331.166870,163.454269 1364.984863,183.140060 1398.888062,202.677917 
	C1434.211548,223.034332 1469.612305,243.257050 1504.940796,263.604828 
	C1537.640015,282.438354 1570.273804,301.385712 1602.964966,320.233368 
	C1625.094971,332.992157 1647.329102,345.571075 1669.417480,358.401276 
	C1695.237671,373.399139 1720.887451,388.690613 1746.722900,403.661957 
	C1792.091064,429.952057 1837.533936,456.113190 1882.964600,482.295105 
	C1922.056885,504.824188 1961.158813,527.336670 2000.290771,549.796753 
	C2017.834717,559.866333 2035.550415,569.639465 2053.025879,579.825562 
	C2068.799072,589.019714 2084.350586,598.593567 2100.000000,608.000000 
	C2100.000000,636.042847 2100.000000,664.085754 2099.271484,693.018982 
	C2081.278076,703.804932 2064.016113,713.706116 2046.747192,723.595154 
	C2012.808105,743.030212 1978.826538,762.391602 1944.937134,781.912964 
	C1922.795898,794.666992 1900.842407,807.746643 1878.702393,820.502869 
	C1853.384277,835.090393 1827.885498,849.364807 1802.590454,863.992188 
	C1780.464844,876.786804 1758.584839,890.006104 1736.463135,902.807495 
	C1716.922607,914.114990 1697.125854,924.978943 1677.570801,936.261414 
	C1640.214600,957.814270 1602.974243,979.567932 1565.639404,1001.158081 
	C1533.429443,1019.784424 1501.123657,1038.245117 1468.917236,1056.877563 
	C1428.634399,1080.182251 1388.459473,1103.673950 1348.146118,1126.925781 
	C1308.437500,1149.828857 1268.588501,1172.488037 1228.849487,1195.338379 
	C1196.313354,1214.046753 1163.881592,1232.936646 1131.304810,1251.573608 
	C1127.796631,1253.580566 1125.647339,1255.630005 1125.632568,1259.896118 
	C1125.606445,1267.450317 1125.125488,1275.001709 1124.993530,1282.557129 
	C1124.947998,1285.161133 1125.597046,1287.777466 1125.551514,1290.381470 
	C1125.259033,1307.135010 1124.836060,1323.886353 1124.550415,1340.640015 
	C1124.528687,1341.907837 1125.445801,1343.169678 1125.561890,1344.466919 
	C1125.737549,1346.429565 1125.621460,1348.421509 1125.579712,1350.399902 
	C1125.226685,1367.152588 1124.848022,1383.904541 1124.539551,1400.657959 
	C1124.522095,1401.607666 1125.215454,1402.554077 1125.294434,1403.525269 
	C1125.480835,1405.815430 1125.607910,1408.121704 1125.563232,1410.417603 
	C1125.237427,1427.170654 1124.848633,1443.922607 1124.542236,1460.676025 
	C1124.524780,1461.625610 1125.221313,1462.571777 1125.299561,1463.542725 
	C1125.484131,1465.833130 1125.604858,1468.139404 1125.560303,1470.435669 
	C1125.235718,1487.188721 1124.849365,1503.940674 1124.545044,1520.694092 
	C1124.527832,1521.643433 1125.227295,1522.589478 1125.304688,1523.560181 
	C1125.487305,1525.850708 1125.601685,1528.157227 1125.557373,1530.453613 
	C1125.234009,1547.206665 1124.850098,1563.958618 1124.547852,1580.712036 
	C1124.530762,1581.661255 1125.233154,1582.607178 1125.309692,1583.577637 
	C1125.490356,1585.868286 1125.598755,1588.174927 1125.554565,1590.471558 
	C1125.232422,1607.224609 1124.850830,1623.976685 1124.550781,1640.730103 
	C1124.533691,1641.679077 1125.239014,1642.625000 1125.314697,1643.595215 
	C1125.493408,1645.885986 1125.595947,1648.192749 1125.551880,1650.489502 
	C1125.230835,1667.242676 1124.851562,1683.994629 1124.553711,1700.748169 
	C1124.536743,1701.697021 1125.244873,1702.642578 1125.319824,1703.612671 
	C1125.496582,1705.903687 1125.592896,1708.210327 1125.548950,1710.507568 
	C1125.229370,1727.260620 1124.852295,1744.012695 1124.556519,1760.766235 
	C1124.539795,1761.714966 1125.250488,1762.660400 1125.324463,1763.630127 
	C1125.499146,1765.921387 1125.589844,1768.228149 1125.546143,1770.525513 
	C1125.227661,1787.278564 1124.852905,1804.030762 1124.559204,1820.784302 
	C1124.542603,1821.732788 1125.256470,1822.678101 1125.329590,1823.647461 
	C1125.502319,1825.938965 1125.586670,1828.245850 1125.543213,1830.543457 
	C1125.225952,1847.296631 1124.853516,1864.048706 1124.562012,1880.802368 
	C1124.545410,1881.750732 1125.262695,1882.695923 1125.334473,1883.665039 
	C1125.504150,1885.956299 1125.579834,1888.262939 1125.536621,1890.560303 
	C1125.221436,1907.313843 1124.852783,1924.066406 1124.564575,1940.820312 
	C1124.548218,1941.768555 1125.268921,1942.713623 1125.339355,1943.682495 
	C1125.505981,1945.973633 1125.573242,1948.279785 1125.530273,1950.577148 
	C1125.217407,1967.331055 1124.852539,1984.084106 1124.567505,2000.838379 
	C1124.551392,2001.786621 1125.275146,2002.731445 1125.344238,2003.699951 
	C1125.507935,2005.990967 1125.566162,2008.296631 1125.523560,2010.593872 
	C1125.212769,2027.348267 1124.851685,2044.101562 1124.570190,2060.856445 
	C1124.554321,2061.804443 1125.281128,2062.749023 1125.349121,2063.717285 
	C1125.509766,2066.008057 1125.559448,2068.313721 1125.517090,2070.610596 
	C1125.208496,2087.365479 1124.850952,2104.119141 1124.573120,2120.874512 
	C1124.557373,2121.822266 1125.287476,2122.766846 1125.354004,2123.734619 
	C1125.511475,2126.025391 1125.552612,2128.330566 1125.510620,2130.627441 
	C1125.204102,2147.382568 1124.848755,2164.136963 1124.548340,2180.892090 
	C1124.473145,2185.084229 1124.618652,2189.280762 1124.527344,2193.472168 
	C1124.363770,2200.977295 1122.911621,2208.603760 1126.898071,2216.551270 
	C1404.075439,2056.607178 1680.903442,1896.864746 1958.041016,1736.943726 
	C1958.041016,1576.247681 1958.041016,1415.640747 1958.041016,1255.482666 
	C1958.966797,1254.563599 1959.360840,1253.972046 1959.912598,1253.652588 
	C1992.064331,1235.027222 2024.255371,1216.469238 2056.381104,1197.799072 
	C2070.985840,1189.311401 2085.464355,1180.606323 2100.000000,1172.000000 
	C2100.000000,1388.042847 2100.000000,1604.085815 2099.283203,1820.953369 
	C2096.660889,1823.091919 2094.839355,1824.553101 2092.837158,1825.697876 
	C2064.869385,1841.690186 2036.821777,1857.543091 2008.902344,1873.619263 
	C1957.669067,1903.119507 1906.483765,1932.703003 1855.325928,1962.333984 
	C1826.039673,1979.296631 1796.920166,1996.548096 1767.594604,2013.442383 
	C1727.936401,2036.289551 1688.093872,2058.816895 1648.438965,2081.669922 
	C1610.446899,2103.564697 1572.636719,2125.775146 1534.667236,2147.709473 
	C1497.026733,2169.454102 1459.250488,2190.963867 1421.602661,2212.696045 
	C1392.583008,2229.447510 1363.714600,2246.461670 1334.696777,2263.216797 
	C1307.661377,2278.827393 1280.473389,2294.173828 1253.436523,2309.782227 
	C1234.753906,2320.567871 1216.300415,2331.751465 1197.592285,2342.492188 
	C1157.657715,2365.419678 1117.565186,2388.072510 1077.683350,2411.090576 
	C1070.109863,2415.461426 1063.210449,2421.000000 1056.000000,2426.000000 
	C1054.500000,2426.000000 1053.000000,2426.000000 1050.636230,2425.306396 
	C1028.510864,2412.311035 1007.279663,2399.955811 985.958984,2387.756836 
	C982.150024,2385.577393 979.671997,2383.106689 980.221924,2378.350830 
	C980.526245,2375.719727 980.273193,2373.024414 980.273193,2370.357910 
	C980.273560,2003.726685 980.274170,1637.095459 980.274719,1270.464233 
	C980.274719,1265.821777 980.274719,1261.179321 980.274719,1256.435547 
	C976.968018,1254.208862 974.046204,1252.017334 970.919495,1250.173462 
	C954.894348,1240.722412 938.833801,1231.331055 922.753052,1221.974854 
	C898.079895,1207.619629 873.439087,1193.207275 848.677185,1179.006348 
	C817.286316,1161.003784 785.720825,1143.305542 754.358704,1125.253540 
	C731.660217,1112.188354 709.251404,1098.620117 686.568970,1085.526611 
	C648.953064,1063.813110 611.198303,1042.340332 573.545776,1020.689941 
	C548.830383,1006.478455 524.185181,992.144836 499.520447,977.845398 
	C459.041718,954.377747 418.612305,930.824707 378.087830,907.436279 
	C341.863739,886.529846 305.501831,865.862305 269.269318,844.970398 
	C231.004181,822.906494 192.829559,800.685669 154.575073,778.603210 
	C152.480728,777.394287 150.015976,776.827087 147.158508,775.747620 
	C147.158508,1096.798950 147.158508,1416.633667 147.158508,1736.802002 
	C166.293121,1747.916748 185.162857,1758.926636 204.079605,1769.855347 
	C238.289871,1789.619263 272.550873,1809.295410 306.748810,1829.080688 
	C344.630219,1850.997070 382.412659,1873.085083 420.333008,1894.933838 
	C465.439819,1920.923340 510.615845,1946.793335 555.851685,1972.557495 
	C561.550598,1975.803345 564.351013,1979.357544 564.292908,1986.579468 
	C563.895508,2035.904907 564.092102,2085.234863 564.064026,2134.563477 
	C564.062561,2137.074707 563.755554,2139.585693 563.500793,2143.468750 
	C553.329956,2137.565186 544.238403,2132.223877 535.086670,2126.987793 
	C496.814789,2105.091064 458.463287,2083.332764 420.259186,2061.318359 
	C384.041748,2040.448853 348.009796,2019.257446 311.823608,1998.333252 
	C288.554108,1984.877930 265.085297,1971.767212 241.826889,1958.293091 
	C205.046005,1936.985107 168.380920,1915.477295 131.639450,1894.101074 
	C106.669662,1879.573486 81.707687,1865.030884 56.638733,1850.675903 
	C38.513824,1840.296875 20.219011,1830.214600 1.999981,1820.000000 
M1693.678101,760.690796 
	C1725.318970,742.436218 1757.105469,724.428162 1788.559937,705.857666 
	C1820.045410,687.268799 1852.502441,670.273987 1884.773804,649.349792 
	C1606.110718,488.546600 1329.244995,328.780548 1052.413818,169.034454 
	C959.670105,222.677429 867.566162,276.056000 775.358032,329.254028 
	C682.865112,382.616394 590.107727,435.522247 497.762207,489.137817 
	C405.800842,542.530396 313.316559,595.034546 220.360565,649.698975 
	C226.513000,653.509277 230.912964,656.417053 235.481354,659.030334 
	C251.005219,667.910400 266.646729,676.585754 282.137695,685.522339 
	C321.232452,708.075684 360.283264,730.705261 399.326660,753.347473 
	C451.277924,783.475342 503.183441,813.682129 555.151428,843.781067 
	C586.713806,862.061401 618.333252,880.243530 649.970520,898.394104 
	C681.387695,916.418518 712.916748,934.248352 744.291260,952.346497 
	C777.067993,971.253479 809.679565,990.446533 842.436401,1009.388184 
	C870.880127,1025.835815 899.476929,1042.018677 927.914429,1058.476929 
	C968.099609,1081.734375 1008.220337,1105.103516 1048.301270,1128.540039 
	C1051.719971,1130.539062 1054.093628,1129.999390 1057.346069,1128.020996 
	C1072.958618,1118.524414 1088.693237,1109.219238 1104.554688,1100.143433 
	C1133.946411,1083.325806 1163.562866,1066.899658 1192.892334,1049.975464 
	C1236.645874,1024.728271 1280.164185,999.073608 1323.909058,973.811401 
	C1363.871948,950.733154 1404.059326,928.043640 1444.043945,905.002686 
	C1483.160645,882.461914 1522.104492,859.621643 1561.200073,837.044128 
	C1604.914917,811.798889 1648.715088,786.701294 1693.678101,760.690796 
z"/>
<path fill="#000000" opacity="1.000000" stroke="none" 
	d="
M1.999981,1820.937378 
	C20.219011,1830.214600 38.513824,1840.296875 56.638733,1850.675903 
	C81.707687,1865.030884 106.669662,1879.573486 131.639450,1894.101074 
	C168.380920,1915.477295 205.046005,1936.985107 241.826889,1958.293091 
	C265.085297,1971.767212 288.554108,1984.877930 311.823608,1998.333252 
	C348.009796,2019.257446 384.041748,2040.448853 420.259186,2061.318359 
	C458.463287,2083.332764 496.814789,2105.091064 535.086670,2126.987793 
	C544.238403,2132.223877 553.329956,2137.565186 563.500793,2143.468750 
	C563.755554,2139.585693 564.062561,2137.074707 564.064026,2134.563477 
	C564.092102,2085.234863 563.895508,2035.904907 564.292908,1986.579468 
	C564.351013,1979.357544 561.550598,1975.803345 555.851685,1972.557495 
	C510.615845,1946.793335 465.439819,1920.923340 420.333008,1894.933838 
	C382.412659,1873.085083 344.630219,1850.997070 306.748810,1829.080688 
	C272.550873,1809.295410 238.289871,1789.619263 204.079605,1769.855347 
	C185.162857,1758.926636 166.293121,1747.916748 147.158508,1736.802002 
	C147.158508,1416.633667 147.158508,1096.798950 147.158508,775.747620 
	C150.015976,776.827087 152.480728,777.394287 154.575073,778.603210 
	C192.829559,800.685669 231.004181,822.906494 269.269318,844.970398 
	C305.501831,865.862305 341.863739,886.529846 378.087830,907.436279 
	C418.612305,930.824707 459.041718,954.377747 499.520447,977.845398 
	C524.185181,992.144836 548.830383,1006.478455 573.545776,1020.689941 
	C611.198303,1042.340332 648.953064,1063.813110 686.568970,1085.526611 
	C709.251404,1098.620117 731.660217,1112.188354 754.358704,1125.253540 
	C785.720825,1143.305542 817.286316,1161.003784 848.677185,1179.006348 
	C873.439087,1193.207275 898.079895,1207.619629 922.753052,1221.974854 
	C938.833801,1231.331055 954.894348,1240.722412 970.919495,1250.173462 
	C974.046204,1252.017334 976.968018,1254.208862 980.274719,1256.435547 
	C980.274719,1261.179321 980.274719,1265.821777 980.274719,1270.464233 
	C980.274170,1637.095459 980.273560,2003.726685 980.273193,2370.357910 
	C980.273193,2373.024414 980.526245,2375.719727 980.221924,2378.350830 
	C979.671997,2383.106689 982.150024,2385.577393 985.958984,2387.756836 
	C1007.279663,2399.955811 1028.510864,2412.311035 1049.886230,2425.306396 
	C700.851501,2426.000000 351.702972,2426.000000 2.000000,2426.000000 
	C2.000000,2224.625244 2.000000,2023.249878 1.999981,1820.937378 
z"/>
<path fill="#000000" opacity="1.000000" stroke="none" 
	d="
M2100.000000,1171.062744 
	C2085.464355,1180.606323 2070.985840,1189.311401 2056.381104,1197.799072 
	C2024.255371,1216.469238 1992.064331,1235.027222 1959.912598,1253.652588 
	C1959.360840,1253.972046 1958.966797,1254.563599 1958.041016,1255.482666 
	C1958.041016,1415.640747 1958.041016,1576.247681 1958.041016,1736.943726 
	C1680.903442,1896.864746 1404.075439,2056.607178 1126.898071,2216.551270 
	C1122.911621,2208.603760 1124.363770,2200.977295 1124.527344,2193.472168 
	C1124.618652,2189.280762 1124.473145,2185.084229 1124.548340,2180.892090 
	C1124.848755,2164.136963 1125.204102,2147.382568 1125.510620,2130.627441 
	C1125.552612,2128.330566 1125.511475,2126.025391 1125.354004,2123.734619 
	C1125.287476,2122.766846 1124.557373,2121.822266 1124.573120,2120.874512 
	C1124.850952,2104.119141 1125.208496,2087.365479 1125.517090,2070.610596 
	C1125.559448,2068.313721 1125.509766,2066.008057 1125.349121,2063.717285 
	C1125.281128,2062.749023 1124.554321,2061.804443 1124.570190,2060.856445 
	C1124.851685,2044.101562 1125.212769,2027.348267 1125.523560,2010.593872 
	C1125.566162,2008.296631 1125.507935,2005.990967 1125.344238,2003.699951 
	C1125.275146,2002.731445 1124.551392,2001.786621 1124.567505,2000.838379 
	C1124.852539,1984.084106 1125.217407,1967.331055 1125.530273,1950.577148 
	C1125.573242,1948.279785 1125.505981,1945.973633 1125.339355,1943.682495 
	C1125.268921,1942.713623 1124.548218,1941.768555 1124.564575,1940.820312 
	C1124.852783,1924.066406 1125.221436,1907.313843 1125.536621,1890.560303 
	C1125.579834,1888.262939 1125.504150,1885.956299 1125.334473,1883.665039 
	C1125.262695,1882.695923 1124.545410,1881.750732 1124.562012,1880.802368 
	C1124.853516,1864.048706 1125.225952,1847.296631 1125.543213,1830.543457 
	C1125.586670,1828.245850 1125.502319,1825.938965 1125.329590,1823.647461 
	C1125.256470,1822.678101 1124.542603,1821.732788 1124.559204,1820.784302 
	C1124.852905,1804.030762 1125.227661,1787.278564 1125.546143,1770.525513 
	C1125.589844,1768.228149 1125.499146,1765.921387 1125.324463,1763.630127 
	C1125.250488,1762.660400 1124.539795,1761.714966 1124.556519,1760.766235 
	C1124.852295,1744.012695 1125.229370,1727.260620 1125.548950,1710.507568 
	C1125.592896,1708.210327 1125.496582,1705.903687 1125.319824,1703.612671 
	C1125.244873,1702.642578 1124.536743,1701.697021 1124.553711,1700.748169 
	C1124.851562,1683.994629 1125.230835,1667.242676 1125.551880,1650.489502 
	C1125.595947,1648.192749 1125.493408,1645.885986 1125.314697,1643.595215 
	C1125.239014,1642.625000 1124.533691,1641.679077 1124.550781,1640.730103 
	C1124.850830,1623.976685 1125.232422,1607.224609 1125.554565,1590.471558 
	C1125.598755,1588.174927 1125.490356,1585.868286 1125.309692,1583.577637 
	C1125.233154,1582.607178 1124.530762,1581.661255 1124.547852,1580.712036 
	C1124.850098,1563.958618 1125.234009,1547.206665 1125.557373,1530.453613 
	C1125.601685,1528.157227 1125.487305,1525.850708 1125.304688,1523.560181 
	C1125.227295,1522.589478 1124.527832,1521.643433 1124.545044,1520.694092 
	C1124.849365,1503.940674 1125.235718,1487.188721 1125.560303,1470.435669 
	C1125.604858,1468.139404 1125.484131,1465.833130 1125.299561,1463.542725 
	C1125.221313,1462.571777 1124.524780,1461.625610 1124.542236,1460.676025 
	C1124.848633,1443.922607 1125.237427,1427.170654 1125.563232,1410.417603 
	C1125.607910,1408.121704 1125.480835,1405.815430 1125.294434,1403.525269 
	C1125.215454,1402.554077 1124.522095,1401.607666 1124.539551,1400.657959 
	C1124.848022,1383.904541 1125.226685,1367.152588 1125.579712,1350.399902 
	C1125.621460,1348.421509 1125.737549,1346.429565 1125.561890,1344.466919 
	C1125.445801,1343.169678 1124.528687,1341.907837 1124.550415,1340.640015 
	C1124.836060,1323.886353 1125.259033,1307.135010 1125.551514,1290.381470 
	C1125.597046,1287.777466 1124.947998,1285.161133 1124.993530,1282.557129 
	C1125.125488,1275.001709 1125.606445,1267.450317 1125.632568,1259.896118 
	C1125.647339,1255.630005 1127.796631,1253.580566 1131.304810,1251.573608 
	C1163.881592,1232.936646 1196.313354,1214.046753 1228.849487,1195.338379 
	C1268.588501,1172.488037 1308.437500,1149.828857 1348.146118,1126.925781 
	C1388.459473,1103.673950 1428.634399,1080.182251 1468.917236,1056.877563 
	C1501.123657,1038.245117 1533.429443,1019.784424 1565.639404,1001.158081 
	C1602.974243,979.567932 1640.214600,957.814270 1677.570801,936.261414 
	C1697.125854,924.978943 1716.922607,914.114990 1736.463135,902.807495 
	C1758.584839,890.006104 1780.464844,876.786804 1802.590454,863.992188 
	C1827.885498,849.364807 1853.384277,835.090393 1878.702393,820.502869 
	C1900.842407,807.746643 1922.795898,794.666992 1944.937134,781.912964 
	C1978.826538,762.391602 2012.808105,743.030212 2046.747192,723.595154 
	C2064.016113,713.706116 2081.278076,703.804932 2099.271484,693.954712 
	C2100.000000,852.708435 2100.000000,1011.416931 2100.000000,1171.062744 
z"/>
<path fill="#000000" opacity="1.000000" stroke="none" 
	d="
M1047.062744,2.000000 
	C1050.449097,5.074051 1047.231201,5.535308 1045.752197,6.422438 
	C1034.649658,13.081724 1023.524170,19.705872 1012.310059,26.174917 
	C986.729736,40.931332 961.087708,55.580559 935.483765,70.295982 
	C898.644897,91.468498 861.789246,112.612076 824.994812,133.861633 
	C798.613342,149.097549 772.377197,164.585464 745.972961,179.781677 
	C715.480835,197.330582 684.812439,214.573593 654.337280,232.151611 
	C625.406738,248.838715 596.645203,265.818756 567.774292,282.609772 
	C546.915527,294.740997 526.026855,306.821350 505.102264,318.838562 
	C477.809174,334.513306 450.432556,350.042725 423.155914,365.745880 
	C393.824249,382.632202 364.558319,399.632812 335.278900,416.609863 
	C295.672089,439.575012 256.125732,462.644958 216.467957,485.521729 
	C178.873032,507.208435 141.124496,528.628845 103.528755,550.314148 
	C83.702278,561.750061 64.122856,573.614014 44.308422,585.071228 
	C30.794104,592.885559 17.066170,600.330383 2.716871,607.970215 
	C2.000000,406.106995 2.000000,204.214005 2.000000,2.000000 
	C350.041718,2.000000 698.083557,2.000000 1047.062744,2.000000 
z"/>
<path fill="#000000" opacity="1.000000" stroke="none" 
	d="
M2100.000000,607.062683 
	C2084.350586,598.593567 2068.799072,589.019714 2053.025879,579.825562 
	C2035.550415,569.639465 2017.834717,559.866333 2000.290771,549.796753 
	C1961.158813,527.336670 1922.056885,504.824188 1882.964600,482.295105 
	C1837.533936,456.113190 1792.091064,429.952057 1746.722900,403.661957 
	C1720.887451,388.690613 1695.237671,373.399139 1669.417480,358.401276 
	C1647.329102,345.571075 1625.094971,332.992157 1602.964966,320.233368 
	C1570.273804,301.385712 1537.640015,282.438354 1504.940796,263.604828 
	C1469.612305,243.257050 1434.211548,223.034332 1398.888062,202.677917 
	C1364.984863,183.140060 1331.166870,163.454269 1297.262207,143.918671 
	C1260.732422,122.870361 1224.118286,101.967987 1187.591675,80.914055 
	C1156.783081,63.156029 1126.049805,45.267513 1095.277222,27.446966 
	C1085.220703,21.623213 1075.060303,15.972231 1065.128052,9.944689 
	C1061.886597,7.977556 1059.217285,5.067377 1057.143188,2.294255 
	C1405.148926,2.000000 1752.297852,2.000000 2100.000000,2.000000 
	C2100.000000,203.374786 2100.000000,404.750061 2100.000000,607.062683 
z"/>
<path fill="#000000" opacity="1.000000" stroke="none" 
	d="
M1056.937256,2426.000000 
	C1063.210449,2421.000000 1070.109863,2415.461426 1077.683350,2411.090576 
	C1117.565186,2388.072510 1157.657715,2365.419678 1197.592285,2342.492188 
	C1216.300415,2331.751465 1234.753906,2320.567871 1253.436523,2309.782227 
	C1280.473389,2294.173828 1307.661377,2278.827393 1334.696777,2263.216797 
	C1363.714600,2246.461670 1392.583008,2229.447510 1421.602661,2212.696045 
	C1459.250488,2190.963867 1497.026733,2169.454102 1534.667236,2147.709473 
	C1572.636719,2125.775146 1610.446899,2103.564697 1648.438965,2081.669922 
	C1688.093872,2058.816895 1727.936401,2036.289551 1767.594604,2013.442383 
	C1796.920166,1996.548096 1826.039673,1979.296631 1855.325928,1962.333984 
	C1906.483765,1932.703003 1957.669067,1903.119507 2008.902344,1873.619263 
	C2036.821777,1857.543091 2064.869385,1841.690186 2092.837158,1825.697876 
	C2094.839355,1824.553101 2096.660889,1823.091919 2099.283203,1821.888916 
	C2100.000000,2023.226440 2100.000000,2224.452881 2100.000000,2426.000000 
	C1752.625000,2426.000000 1405.249756,2426.000000 1056.937256,2426.000000 
z"/>
<path fill="#000000" opacity="1.000000" stroke="none" 
	d="
M1693.078125,761.115112 
	C1648.715088,786.701294 1604.914917,811.798889 1561.200073,837.044128 
	C1522.104492,859.621643 1483.160645,882.461914 1444.043945,905.002686 
	C1404.059326,928.043640 1363.871948,950.733154 1323.909058,973.811401 
	C1280.164185,999.073608 1236.645874,1024.728271 1192.892334,1049.975464 
	C1163.562866,1066.899658 1133.946411,1083.325806 1104.554688,1100.143433 
	C1088.693237,1109.219238 1072.958618,1118.524414 1057.346069,1128.020996 
	C1054.093628,1129.999390 1051.719971,1130.539062 1048.301270,1128.540039 
	C1008.220337,1105.103516 968.099609,1081.734375 927.914429,1058.476929 
	C899.476929,1042.018677 870.880127,1025.835815 842.436401,1009.388184 
	C809.679565,990.446533 777.067993,971.253479 744.291260,952.346497 
	C712.916748,934.248352 681.387695,916.418518 649.970520,898.394104 
	C618.333252,880.243530 586.713806,862.061401 555.151428,843.781067 
	C503.183441,813.682129 451.277924,783.475342 399.326660,753.347473 
	C360.283264,730.705261 321.232452,708.075684 282.137695,685.522339 
	C266.646729,676.585754 251.005219,667.910400 235.481354,659.030334 
	C230.912964,656.417053 226.513000,653.509277 220.360565,649.698975 
	C313.316559,595.034546 405.800842,542.530396 497.762207,489.137817 
	C590.107727,435.522247 682.865112,382.616394 775.358032,329.254028 
	C867.566162,276.056000 959.670105,222.677429 1052.413818,169.034454 
	C1329.244995,328.780548 1606.110718,488.546600 1884.773804,649.349792 
	C1852.502441,670.273987 1820.045410,687.268799 1788.559937,705.857666 
	C1757.105469,724.428162 1725.318970,742.436218 1693.078125,761.115112 
z"/>
</svg>